<mxfile host="65bd71144e">
    <diagram id="zG_Oaf-O4gQHG555Pn15" name="페이지-1">
        <mxGraphModel dx="2149" dy="844" grid="0" gridSize="10" guides="1" tooltips="1" connect="1" arrows="1" fold="1" page="0" pageScale="1" pageWidth="1169" pageHeight="827" math="0" shadow="0">
            <root>
                <mxCell id="0"/>
                <mxCell id="1" parent="0"/>
                <mxCell id="35" style="edgeStyle=none;html=1;startArrow=none;rounded=1;fontFamily=D2Coding;" parent="1" source="39" target="30" edge="1">
                    <mxGeometry relative="1" as="geometry"/>
                </mxCell>
                <mxCell id="38" value="&amp;lt; create" style="edgeLabel;html=1;align=center;verticalAlign=middle;resizable=0;points=[];rounded=1;fontFamily=D2Coding;rotation=-90;" parent="35" vertex="1" connectable="0">
                    <mxGeometry x="0.1156" y="2" relative="1" as="geometry">
                        <mxPoint x="-18" y="-11" as="offset"/>
                    </mxGeometry>
                </mxCell>
                <mxCell id="17" value="Curriculum" style="swimlane;fontStyle=1;align=center;verticalAlign=top;childLayout=stackLayout;horizontal=1;startSize=26;horizontalStack=0;resizeParent=1;resizeParentMax=0;resizeLast=0;collapsible=1;marginBottom=0;rounded=1;fontFamily=D2Coding;" parent="1" vertex="1">
                    <mxGeometry x="330" y="289" width="290" height="230" as="geometry">
                        <mxRectangle x="370" y="270" width="100" height="30" as="alternateBounds"/>
                    </mxGeometry>
                </mxCell>
                <mxCell id="18" value="- id: Long&#10;- name: String&#10;- roundId: Long&#10;- target: Set&lt;TargetEnum&gt;" style="text;strokeColor=none;fillColor=none;align=left;verticalAlign=top;spacingLeft=4;spacingRight=4;overflow=hidden;rotatable=0;points=[[0,0.5],[1,0.5]];portConstraint=eastwest;rounded=1;fontFamily=D2Coding;" parent="17" vertex="1">
                    <mxGeometry y="26" width="290" height="74" as="geometry"/>
                </mxCell>
                <mxCell id="19" value="" style="line;strokeWidth=1;fillColor=none;align=left;verticalAlign=middle;spacingTop=-1;spacingLeft=3;spacingRight=3;rotatable=0;labelPosition=right;points=[];portConstraint=eastwest;strokeColor=inherit;rounded=1;fontFamily=D2Coding;" parent="17" vertex="1">
                    <mxGeometry y="100" width="290" height="8" as="geometry"/>
                </mxCell>
                <mxCell id="20" value="+ addSubject(s: Subject): void  {s.id != null}&#10;+ removeSubject(s: UUID): void&#10;+ subjects(): List&lt;Subject&gt; {this.id}&#10;+ addTarget(): void&#10;+ removeTarget(): void&#10;+ newRoundDuplicate(id: Long): Long {return new}&#10;+ round(): Round" style="text;strokeColor=none;fillColor=none;align=left;verticalAlign=top;spacingLeft=4;spacingRight=4;overflow=hidden;rotatable=0;points=[[0,0.5],[1,0.5]];portConstraint=eastwest;rounded=1;fontFamily=D2Coding;" parent="17" vertex="1">
                    <mxGeometry y="108" width="290" height="122" as="geometry"/>
                </mxCell>
                <mxCell id="30" value="Round" style="swimlane;fontStyle=1;align=center;verticalAlign=top;childLayout=stackLayout;horizontal=1;startSize=26;horizontalStack=0;resizeParent=1;resizeParentMax=0;resizeLast=0;collapsible=1;marginBottom=0;rounded=1;spacing=2;fontFamily=D2Coding;" parent="1" vertex="1">
                    <mxGeometry x="330" y="619" width="290" height="266" as="geometry">
                        <mxRectangle x="370" y="270" width="100" height="30" as="alternateBounds"/>
                    </mxGeometry>
                </mxCell>
                <mxCell id="31" value="- id: Long&#10;- roundSequence: Integer&#10;- content: String&#10;- startDate: LocalDate&#10;- endDate: LcoalDate&#10;- useYn: Boolean&#10;- closedReason: String" style="text;strokeColor=none;fillColor=none;align=left;verticalAlign=top;spacingLeft=4;spacingRight=4;overflow=hidden;rotatable=0;points=[[0,0.5],[1,0.5]];portConstraint=eastwest;rounded=1;spacing=2;spacingTop=0;fontFamily=D2Coding;" parent="30" vertex="1">
                    <mxGeometry y="26" width="290" height="117" as="geometry"/>
                </mxCell>
                <mxCell id="32" value="" style="line;strokeWidth=1;fillColor=none;align=left;verticalAlign=middle;spacingTop=-1;spacingLeft=3;spacingRight=3;rotatable=0;labelPosition=right;points=[];portConstraint=eastwest;strokeColor=inherit;rounded=1;fontFamily=D2Coding;" parent="30" vertex="1">
                    <mxGeometry y="143" width="290" height="8" as="geometry"/>
                </mxCell>
                <mxCell id="33" value="+ addSubject(s: Subject) : void  {s.id != null}&#10;+ removeSubject(s: UUID): void&#10;+ subjects() : List&lt;Subject&gt; {this.id}&#10;+ addTarget(): void&#10;+ removeTarget(): void&#10;+ newRoundDuplicate(id: Long) : Long {return new}&#10;+ round(): Round" style="text;strokeColor=none;fillColor=none;align=left;verticalAlign=top;spacingLeft=4;spacingRight=4;overflow=hidden;rotatable=0;points=[[0,0.5],[1,0.5]];portConstraint=eastwest;rounded=1;fontFamily=D2Coding;" parent="30" vertex="1">
                    <mxGeometry y="151" width="290" height="115" as="geometry"/>
                </mxCell>
                <mxCell id="40" value="" style="edgeStyle=none;html=1;endArrow=none;rounded=1;fontFamily=D2Coding;" parent="1" source="17" target="39" edge="1">
                    <mxGeometry relative="1" as="geometry">
                        <mxPoint x="330" y="404" as="sourcePoint"/>
                        <mxPoint x="180" y="404" as="targetPoint"/>
                    </mxGeometry>
                </mxCell>
                <mxCell id="39" value="roundId" style="whiteSpace=wrap;html=1;rounded=1;fontFamily=D2Coding;" parent="1" vertex="1">
                    <mxGeometry x="445" y="519" width="60" height="20" as="geometry"/>
                </mxCell>
                <mxCell id="52" style="edgeStyle=none;html=1;fontFamily=D2Coding;dashed=1;" edge="1" parent="1" source="41" target="48">
                    <mxGeometry relative="1" as="geometry"/>
                </mxCell>
                <mxCell id="41" value="Subject" style="swimlane;fontStyle=1;align=center;verticalAlign=top;childLayout=stackLayout;horizontal=1;startSize=26;horizontalStack=0;resizeParent=1;resizeParentMax=0;resizeLast=0;collapsible=1;marginBottom=0;rounded=1;fontFamily=D2Coding;" vertex="1" parent="1">
                    <mxGeometry x="776" y="374" width="290" height="168" as="geometry">
                        <mxRectangle x="370" y="270" width="100" height="30" as="alternateBounds"/>
                    </mxGeometry>
                </mxCell>
                <mxCell id="42" value="- id: UUID&#10;- name: String&#10;- professorId: UUID&#10;- title: String&#10;- content: String" style="text;strokeColor=none;fillColor=none;align=left;verticalAlign=top;spacingLeft=4;spacingRight=4;overflow=hidden;rotatable=0;points=[[0,0.5],[1,0.5]];portConstraint=eastwest;rounded=1;fontFamily=D2Coding;" vertex="1" parent="41">
                    <mxGeometry y="26" width="290" height="89" as="geometry"/>
                </mxCell>
                <mxCell id="43" value="" style="line;strokeWidth=1;fillColor=none;align=left;verticalAlign=middle;spacingTop=-1;spacingLeft=3;spacingRight=3;rotatable=0;labelPosition=right;points=[];portConstraint=eastwest;strokeColor=inherit;rounded=1;fontFamily=D2Coding;" vertex="1" parent="41">
                    <mxGeometry y="115" width="290" height="8" as="geometry"/>
                </mxCell>
                <mxCell id="44" value="+ professor(): Professor&#10;+ changeProfessor(professorId: UUID): void" style="text;strokeColor=none;fillColor=none;align=left;verticalAlign=top;spacingLeft=4;spacingRight=4;overflow=hidden;rotatable=0;points=[[0,0.5],[1,0.5]];portConstraint=eastwest;rounded=1;fontFamily=D2Coding;" vertex="1" parent="41">
                    <mxGeometry y="123" width="290" height="45" as="geometry"/>
                </mxCell>
                <mxCell id="45" style="edgeStyle=none;html=1;fontFamily=D2Coding;startArrow=none;" edge="1" parent="1" source="20" target="41">
                    <mxGeometry relative="1" as="geometry">
                        <mxPoint x="679.9999999999998" y="427.9999999999999" as="sourcePoint"/>
                    </mxGeometry>
                </mxCell>
                <mxCell id="47" value="" style="edgeStyle=none;html=1;fontFamily=D2Coding;endArrow=none;" edge="1" parent="1" source="20">
                    <mxGeometry relative="1" as="geometry">
                        <mxPoint x="620" y="430.2409909909909" as="sourcePoint"/>
                        <mxPoint x="620" y="433.1428571428571" as="targetPoint"/>
                    </mxGeometry>
                </mxCell>
                <mxCell id="48" value="&lt;&lt;record&gt;&gt;&#10;Professor" style="swimlane;fontStyle=1;align=center;verticalAlign=top;childLayout=stackLayout;horizontal=1;startSize=41;horizontalStack=0;resizeParent=1;resizeParentMax=0;resizeLast=0;collapsible=1;marginBottom=0;rounded=1;fontFamily=D2Coding;arcSize=8;" vertex="1" parent="1">
                    <mxGeometry x="846.5" y="831" width="149" height="126" as="geometry">
                        <mxRectangle x="370" y="270" width="100" height="30" as="alternateBounds"/>
                    </mxGeometry>
                </mxCell>
                <mxCell id="49" value="id: UUID&#10;name: String&#10;contact: String" style="text;strokeColor=none;fillColor=none;align=left;verticalAlign=top;spacingLeft=4;spacingRight=4;overflow=hidden;rotatable=0;points=[[0,0.5],[1,0.5]];portConstraint=eastwest;rounded=1;fontFamily=D2Coding;" vertex="1" parent="48">
                    <mxGeometry y="41" width="149" height="58" as="geometry"/>
                </mxCell>
                <mxCell id="50" value="" style="line;strokeWidth=1;fillColor=none;align=left;verticalAlign=middle;spacingTop=-1;spacingLeft=3;spacingRight=3;rotatable=0;labelPosition=right;points=[];portConstraint=eastwest;strokeColor=inherit;rounded=1;fontFamily=D2Coding;" vertex="1" parent="48">
                    <mxGeometry y="99" width="149" height="8" as="geometry"/>
                </mxCell>
                <mxCell id="51" value=" " style="text;strokeColor=none;fillColor=none;align=left;verticalAlign=top;spacingLeft=4;spacingRight=4;overflow=hidden;rotatable=0;points=[[0,0.5],[1,0.5]];portConstraint=eastwest;rounded=1;fontFamily=D2Coding;" vertex="1" parent="48">
                    <mxGeometry y="107" width="149" height="19" as="geometry"/>
                </mxCell>
                <mxCell id="54" value="professorId" style="whiteSpace=wrap;html=1;rounded=1;fontFamily=D2Coding;" vertex="1" parent="1">
                    <mxGeometry x="881.5" y="542" width="79" height="20" as="geometry"/>
                </mxCell>
                <mxCell id="60" value="&lt;&lt;interface&gt;&gt;&#10;User" style="swimlane;fontStyle=1;align=center;verticalAlign=top;childLayout=stackLayout;horizontal=1;startSize=41;horizontalStack=0;resizeParent=1;resizeParentMax=0;resizeLast=0;collapsible=1;marginBottom=0;rounded=1;fontFamily=D2Coding;arcSize=8;" vertex="1" parent="1">
                    <mxGeometry x="709.5" y="632" width="114" height="124" as="geometry">
                        <mxRectangle x="370" y="270" width="100" height="30" as="alternateBounds"/>
                    </mxGeometry>
                </mxCell>
                <mxCell id="61" value=" " style="text;strokeColor=none;fillColor=none;align=left;verticalAlign=top;spacingLeft=4;spacingRight=4;overflow=hidden;rotatable=0;points=[[0,0.5],[1,0.5]];portConstraint=eastwest;rounded=1;fontFamily=D2Coding;" vertex="1" parent="60">
                    <mxGeometry y="41" width="114" height="18" as="geometry"/>
                </mxCell>
                <mxCell id="62" value="" style="line;strokeWidth=1;fillColor=none;align=left;verticalAlign=middle;spacingTop=-1;spacingLeft=3;spacingRight=3;rotatable=0;labelPosition=right;points=[];portConstraint=eastwest;strokeColor=inherit;rounded=1;fontFamily=D2Coding;" vertex="1" parent="60">
                    <mxGeometry y="59" width="114" height="8" as="geometry"/>
                </mxCell>
                <mxCell id="63" value="id(): UUID&#10;name(): String&#10;contact(): String" style="text;strokeColor=none;fillColor=none;align=left;verticalAlign=top;spacingLeft=4;spacingRight=4;overflow=hidden;rotatable=0;points=[[0,0.5],[1,0.5]];portConstraint=eastwest;rounded=1;fontFamily=D2Coding;" vertex="1" parent="60">
                    <mxGeometry y="67" width="114" height="57" as="geometry"/>
                </mxCell>
                <mxCell id="64" style="edgeStyle=none;html=1;fontFamily=D2Coding;dashed=1;endArrow=block;endFill=0;startArrow=none;" edge="1" parent="1" source="66" target="60">
                    <mxGeometry relative="1" as="geometry">
                        <mxPoint x="921" y="661" as="sourcePoint"/>
                        <mxPoint x="921.0000000000005" y="759" as="targetPoint"/>
                        <Array as="points"/>
                    </mxGeometry>
                </mxCell>
                <mxCell id="67" value="" style="edgeStyle=none;html=1;fontFamily=D2Coding;endArrow=block;endFill=0;dashed=1;" edge="1" parent="1" source="48" target="66">
                    <mxGeometry relative="1" as="geometry">
                        <mxPoint x="921" y="885" as="sourcePoint"/>
                        <mxPoint x="974" y="929" as="targetPoint"/>
                        <Array as="points"/>
                    </mxGeometry>
                </mxCell>
                <mxCell id="66" value="&lt;i&gt;sealed&lt;/i&gt;" style="whiteSpace=wrap;html=1;rounded=1;fontFamily=D2Coding;" vertex="1" parent="1">
                    <mxGeometry x="744" y="756" width="45" height="20" as="geometry"/>
                </mxCell>
                <mxCell id="76" style="edgeStyle=none;html=1;dashed=1;fontFamily=D2Coding;endArrow=block;endFill=0;" edge="1" parent="1" source="68" target="72">
                    <mxGeometry relative="1" as="geometry"/>
                </mxCell>
                <mxCell id="91" style="edgeStyle=none;html=1;dashed=1;fontFamily=D2Coding;endArrow=openThin;endFill=0;" edge="1" parent="1" source="68" target="86">
                    <mxGeometry relative="1" as="geometry"/>
                </mxCell>
                <mxCell id="68" value="CurriculumSubject" style="swimlane;fontStyle=1;align=center;verticalAlign=top;childLayout=stackLayout;horizontal=1;startSize=26;horizontalStack=0;resizeParent=1;resizeParentMax=0;resizeLast=0;collapsible=1;marginBottom=0;rounded=1;spacing=2;fontFamily=D2Coding;" vertex="1" parent="1">
                    <mxGeometry x="-65" y="470" width="219" height="109" as="geometry">
                        <mxRectangle x="370" y="270" width="100" height="30" as="alternateBounds"/>
                    </mxGeometry>
                </mxCell>
                <mxCell id="69" value="curriculumId: Long&#10;subjectId: UUID" style="text;strokeColor=none;fillColor=none;align=left;verticalAlign=top;spacingLeft=4;spacingRight=4;overflow=hidden;rotatable=0;points=[[0,0.5],[1,0.5]];portConstraint=eastwest;rounded=1;spacing=2;spacingTop=0;fontFamily=D2Coding;" vertex="1" parent="68">
                    <mxGeometry y="26" width="219" height="43" as="geometry"/>
                </mxCell>
                <mxCell id="70" value="" style="line;strokeWidth=1;fillColor=none;align=left;verticalAlign=middle;spacingTop=-1;spacingLeft=3;spacingRight=3;rotatable=0;labelPosition=right;points=[];portConstraint=eastwest;strokeColor=inherit;rounded=1;fontFamily=D2Coding;" vertex="1" parent="68">
                    <mxGeometry y="69" width="219" height="8" as="geometry"/>
                </mxCell>
                <mxCell id="71" value="+ toRecord(): CurriculumSubjectRecord" style="text;strokeColor=none;fillColor=none;align=left;verticalAlign=top;spacingLeft=4;spacingRight=4;overflow=hidden;rotatable=0;points=[[0,0.5],[1,0.5]];portConstraint=eastwest;rounded=1;fontFamily=D2Coding;" vertex="1" parent="68">
                    <mxGeometry y="77" width="219" height="32" as="geometry"/>
                </mxCell>
                <mxCell id="72" value="&lt;&lt;interface&gt;&gt;&#10;RelationRecord" style="swimlane;fontStyle=1;align=center;verticalAlign=top;childLayout=stackLayout;horizontal=1;startSize=41;horizontalStack=0;resizeParent=1;resizeParentMax=0;resizeLast=0;collapsible=1;marginBottom=0;rounded=1;fontFamily=D2Coding;arcSize=8;" vertex="1" parent="1">
                    <mxGeometry x="-123" y="258" width="154" height="124" as="geometry">
                        <mxRectangle x="370" y="270" width="100" height="30" as="alternateBounds"/>
                    </mxGeometry>
                </mxCell>
                <mxCell id="73" value=" " style="text;strokeColor=none;fillColor=none;align=left;verticalAlign=top;spacingLeft=4;spacingRight=4;overflow=hidden;rotatable=0;points=[[0,0.5],[1,0.5]];portConstraint=eastwest;rounded=1;fontFamily=D2Coding;" vertex="1" parent="72">
                    <mxGeometry y="41" width="154" height="18" as="geometry"/>
                </mxCell>
                <mxCell id="74" value="" style="line;strokeWidth=1;fillColor=none;align=left;verticalAlign=middle;spacingTop=-1;spacingLeft=3;spacingRight=3;rotatable=0;labelPosition=right;points=[];portConstraint=eastwest;strokeColor=inherit;rounded=1;fontFamily=D2Coding;" vertex="1" parent="72">
                    <mxGeometry y="59" width="154" height="8" as="geometry"/>
                </mxCell>
                <mxCell id="75" value="+ &lt;T&gt; toRecord(): T" style="text;strokeColor=none;fillColor=none;align=left;verticalAlign=top;spacingLeft=4;spacingRight=4;overflow=hidden;rotatable=0;points=[[0,0.5],[1,0.5]];portConstraint=eastwest;rounded=1;fontFamily=D2Coding;" vertex="1" parent="72">
                    <mxGeometry y="67" width="154" height="57" as="geometry"/>
                </mxCell>
                <mxCell id="81" style="edgeStyle=none;html=1;dashed=1;fontFamily=D2Coding;endArrow=block;endFill=0;" edge="1" parent="1" source="77" target="72">
                    <mxGeometry relative="1" as="geometry"/>
                </mxCell>
                <mxCell id="90" style="edgeStyle=none;html=1;dashed=1;fontFamily=D2Coding;endArrow=openThin;endFill=0;" edge="1" parent="1" source="77" target="82">
                    <mxGeometry relative="1" as="geometry">
                        <mxPoint x="-143" y="610" as="targetPoint"/>
                    </mxGeometry>
                </mxCell>
                <mxCell id="77" value="CurriculumRound" style="swimlane;fontStyle=1;align=center;verticalAlign=top;childLayout=stackLayout;horizontal=1;startSize=26;horizontalStack=0;resizeParent=1;resizeParentMax=0;resizeLast=0;collapsible=1;marginBottom=0;rounded=1;spacing=2;fontFamily=D2Coding;" vertex="1" parent="1">
                    <mxGeometry x="-381" y="470" width="219" height="109" as="geometry">
                        <mxRectangle x="370" y="270" width="100" height="30" as="alternateBounds"/>
                    </mxGeometry>
                </mxCell>
                <mxCell id="78" value="curriculumId: Long&#10;roundId: Long" style="text;strokeColor=none;fillColor=none;align=left;verticalAlign=top;spacingLeft=4;spacingRight=4;overflow=hidden;rotatable=0;points=[[0,0.5],[1,0.5]];portConstraint=eastwest;rounded=1;spacing=2;spacingTop=0;fontFamily=D2Coding;" vertex="1" parent="77">
                    <mxGeometry y="26" width="219" height="43" as="geometry"/>
                </mxCell>
                <mxCell id="79" value="" style="line;strokeWidth=1;fillColor=none;align=left;verticalAlign=middle;spacingTop=-1;spacingLeft=3;spacingRight=3;rotatable=0;labelPosition=right;points=[];portConstraint=eastwest;strokeColor=inherit;rounded=1;fontFamily=D2Coding;" vertex="1" parent="77">
                    <mxGeometry y="69" width="219" height="8" as="geometry"/>
                </mxCell>
                <mxCell id="80" value="+ toRecord(): CurriculumRoundRecord" style="text;strokeColor=none;fillColor=none;align=left;verticalAlign=top;spacingLeft=4;spacingRight=4;overflow=hidden;rotatable=0;points=[[0,0.5],[1,0.5]];portConstraint=eastwest;rounded=1;fontFamily=D2Coding;" vertex="1" parent="77">
                    <mxGeometry y="77" width="219" height="32" as="geometry"/>
                </mxCell>
                <mxCell id="82" value="&lt;&lt;record&gt;&gt;&#10;CurriculumRound" style="swimlane;fontStyle=1;align=center;verticalAlign=top;childLayout=stackLayout;horizontal=1;startSize=41;horizontalStack=0;resizeParent=1;resizeParentMax=0;resizeLast=0;collapsible=1;marginBottom=0;rounded=1;fontFamily=D2Coding;arcSize=8;" vertex="1" parent="1">
                    <mxGeometry x="-311" y="662" width="149" height="269" as="geometry">
                        <mxRectangle x="370" y="270" width="100" height="30" as="alternateBounds"/>
                    </mxGeometry>
                </mxCell>
                <mxCell id="83" value="curriculumId: Long&#10;&#9;curriculumName: String&#10;&#9;target: Set&lt;TargetEnum&gt;&#10;&#9;roundId: Long&#10;&#9;roundSequence: Integer&#10;&#9;roundContent: String&#10;&#9;startDate: LocalDate&#10;&#9;endDate: LocalDate&#10;&#9;useYn: Boolean&#10;&#9;isClosed: Boolean&#10;&#9;closedReason: String" style="text;strokeColor=none;fillColor=none;align=left;verticalAlign=top;spacingLeft=4;spacingRight=4;overflow=hidden;rotatable=0;points=[[0,0.5],[1,0.5]];portConstraint=eastwest;rounded=1;fontFamily=D2Coding;" vertex="1" parent="82">
                    <mxGeometry y="41" width="149" height="174" as="geometry"/>
                </mxCell>
                <mxCell id="84" value="" style="line;strokeWidth=1;fillColor=none;align=left;verticalAlign=middle;spacingTop=-1;spacingLeft=3;spacingRight=3;rotatable=0;labelPosition=right;points=[];portConstraint=eastwest;strokeColor=inherit;rounded=1;fontFamily=D2Coding;" vertex="1" parent="82">
                    <mxGeometry y="215" width="149" height="8" as="geometry"/>
                </mxCell>
                <mxCell id="85" value="toCurriculum(): Curriculum&#10;&#9;toRound(): Round" style="text;strokeColor=none;fillColor=none;align=left;verticalAlign=top;spacingLeft=4;spacingRight=4;overflow=hidden;rotatable=0;points=[[0,0.5],[1,0.5]];portConstraint=eastwest;rounded=1;fontFamily=D2Coding;" vertex="1" parent="82">
                    <mxGeometry y="223" width="149" height="46" as="geometry"/>
                </mxCell>
                <mxCell id="86" value="&lt;&lt;record&gt;&gt;&#10;CurriculumSubject" style="swimlane;fontStyle=1;align=center;verticalAlign=top;childLayout=stackLayout;horizontal=1;startSize=41;horizontalStack=0;resizeParent=1;resizeParentMax=0;resizeLast=0;collapsible=1;marginBottom=0;rounded=1;fontFamily=D2Coding;arcSize=8;" vertex="1" parent="1">
                    <mxGeometry x="5" y="662" width="149" height="225" as="geometry">
                        <mxRectangle x="370" y="270" width="100" height="30" as="alternateBounds"/>
                    </mxGeometry>
                </mxCell>
                <mxCell id="87" value="curriculumId: Long&#10;&#9;subjectId: UUID&#10;&#9;name: String&#10;&#9;professorId: UUID&#10;&#9;professorName: String&#10;&#9;professorConact: String&#10;&#9;name: String&#10;&#9;title: String&#10;&#9;content: String" style="text;strokeColor=none;fillColor=none;align=left;verticalAlign=top;spacingLeft=4;spacingRight=4;overflow=hidden;rotatable=0;points=[[0,0.5],[1,0.5]];portConstraint=eastwest;rounded=1;fontFamily=D2Coding;" vertex="1" parent="86">
                    <mxGeometry y="41" width="149" height="143" as="geometry"/>
                </mxCell>
                <mxCell id="88" value="" style="line;strokeWidth=1;fillColor=none;align=left;verticalAlign=middle;spacingTop=-1;spacingLeft=3;spacingRight=3;rotatable=0;labelPosition=right;points=[];portConstraint=eastwest;strokeColor=inherit;rounded=1;fontFamily=D2Coding;" vertex="1" parent="86">
                    <mxGeometry y="184" width="149" height="8" as="geometry"/>
                </mxCell>
                <mxCell id="89" value="toSubject(): Subject" style="text;strokeColor=none;fillColor=none;align=left;verticalAlign=top;spacingLeft=4;spacingRight=4;overflow=hidden;rotatable=0;points=[[0,0.5],[1,0.5]];portConstraint=eastwest;rounded=1;fontFamily=D2Coding;" vertex="1" parent="86">
                    <mxGeometry y="192" width="149" height="33" as="geometry"/>
                </mxCell>
            </root>
        </mxGraphModel>
    </diagram>
</mxfile>